# xmcd
#
# Track frame offsets: 
#        225
#        21090
#        42401
#        63759
#        85771
#        101740
#        114283
#        126363
#        143774
#        173023
#        190387
#        213780
#        227444
#        240511
#        251425
#        263833
#        282646
#
# Disc length: 3915 seconds
#
# Revision: 0
# Processed by: cddbd v1.4PL0 Copyright (c) Steve Scherf et al.
# Submitted via: ExactAudioCopy v0.90a11
#
DISCID=e60f4811
DTITLE=Champion Jack Dupree  - The Blues Of Champion Jack Dupree 
DYEAR=1900
DGENRE=
TTITLE0=Ain't That A Hard Pill To Swallow
TTITLE1=Things I Used To Do
TTITLE2=Self Pity
TTITLE3=Suicide Blues
TTITLE4=Have You Ever Been Alone
TTITLE5=Poor House Blues
TTITLE6=I Want To Settle Down
TTITLE7=When I'm Drinking
TTITLE8=In Prison Too Long
TTITLE9=My Mother Is Gone
TTITLE10=That's All Right, Baby
TTITLE11=I'm Crazy About You
TTITLE12=Its Too Late
TTITLE13=My Baby's Coming Home
TTITLE14=One By One Blues
TTITLE15=President Kennedy Blues
TTITLE16=You're So Fine
EXTD=
EXTT0=
EXTT1=
EXTT2=
EXTT3=
EXTT4=
EXTT5=
EXTT6=
EXTT7=
EXTT8=
EXTT9=
EXTT10=
EXTT11=
EXTT12=
EXTT13=
EXTT14=
EXTT15=
EXTT16=
PLAYORDER=
